<svg width="40" height="40" viewBox="0 0 40 40" fill="none" xmlns="http://www.w3.org/2000/svg">
<path d="M20 40C31.0457 40 40 31.0457 40 20C40 8.9543 31.0457 0 20 0C8.9543 0 0 8.9543 0 20C0 31.0457 8.9543 40 20 40Z" fill="white"/>
<path d="M31.4851 16.8774V10.6274H28.3601V7.50244H22.1113V4.37744H15.8613V7.50244H9.61133V10.6274H6.48633V29.3762H9.61133V32.5012H15.8613V35.6249H22.1101V32.5012H28.3601V29.3762H31.4851V23.1262H25.2363V26.2512H22.1113V29.3762H15.8613V26.2512H12.7388V13.7524H15.8638V10.6274H22.1126V13.7524H25.2376V16.8774H31.4851Z" fill="url(#paint0_linear_26_13532)"/>
<path d="M24.2876 10.47H22.1113V13.7512H24.2876V10.47Z" fill="#1682FE"/>
<path d="M18.0327 4.375H15.8564V7.65625H18.0327V4.375Z" fill="#1682FE"/>
<path d="M11.7851 7.5H9.60889V10.7812H11.7851V7.5Z" fill="#60D8A4"/>
<path d="M8.68117 20H6.48242V29.3738H8.68117V20Z" fill="#F4BB3B"/>
<path d="M8.68117 10.6274H6.48242V20.0012H8.68117V10.6274Z" fill="#60D8A4"/>
<path d="M27.4101 13.5938H25.2339V16.875H27.4101V13.5938Z" fill="#1682FE"/>
<path d="M27.4087 23.125H25.2324V26.4062H27.4087V23.125Z" fill="#FF5A5A"/>
<path d="M24.2876 26.25H22.1113V29.5312H24.2876V26.25Z" fill="#FF5A5A"/>
<path d="M18.0337 32.3425H15.8574V35.6238H18.0337V32.3425Z" fill="#FF5A5A"/>
<path d="M11.7837 29.2188H9.60742V32.5H11.7837V29.2188Z" fill="#F4BB3B"/>
<path d="M33.5174 16.875V10.625H30.3911V7.5H24.1424V4.375H17.8924V7.5H11.6424V10.625H8.51611V29.375H11.6411V32.5H17.8899V35.6237H24.1399V32.5H30.3911V29.375H33.5174V23.125H27.2674V26.25H24.1424V29.375H17.8924V26.25H14.7674V13.75H17.8924V10.625H24.1424V13.75H27.2674V16.875H33.5174Z" fill="#3A3A3A"/>
<defs>
<linearGradient id="paint0_linear_26_13532" x1="23.8601" y1="8.09643" x2="8.99627" y2="31.3187" gradientUnits="userSpaceOnUse">
<stop stop-color="#1682FE"/>
<stop offset="0.3" stop-color="#60D8A4"/>
<stop offset="0.7" stop-color="#FCA75B"/>
<stop offset="1" stop-color="#FF5A5A"/>
</linearGradient>
</defs>
</svg>
