<svg width="40" height="40" viewBox="0 0 40 40" fill="none" xmlns="http://www.w3.org/2000/svg">
<path d="M20 40C31.0457 40 40 31.0457 40 20C40 8.9543 31.0457 0 20 0C8.9543 0 0 8.9543 0 20C0 31.0457 8.9543 40 20 40Z" fill="#006AE3"/>
<path d="M19.0127 27.9499V12.1924H20.7277V27.9499H19.0127Z" fill="white"/>
<path d="M27.7463 17.4425L22.4463 18.8475L21.265 13.3475L22.84 12.9925L23.4625 15.5975C23.4625 15.5975 24.8938 13.25 22.985 10.8175C21.86 9.56746 21.3263 9.51496 20.065 9.31746C18.955 9.15871 16.375 9.53371 15.6062 12.545C15.2812 14.485 15.6475 15.92 18.1475 17.7987L18.0075 19.89C18.0075 19.89 15.2163 17.9237 14.4963 16.545C13.94 15.4537 12.9838 13.2987 14.7088 10.2987C15.6363 8.79871 17.4662 7.35996 20.69 7.51121C22.31 7.57871 26.2688 9.56121 25.655 14.1887C25.5487 15.0562 25.0988 16.2112 25.0988 16.2112L27.2738 15.7275L27.7463 17.4425ZM24.72 29.7725C23.75 31.2462 21.8825 32.635 18.6662 32.4012C17.045 32.2912 13.1437 30.2037 13.8787 25.5937C14.0075 24.7312 14.4887 23.59 14.4887 23.59L12.3025 24.015L11.875 22.2912L17.2125 21.0262L18.25 26.5562L16.6625 26.8712L16.11 24.2462C16.11 24.2462 14.6175 26.5525 16.4587 29.0375C17.5487 30.3175 18.08 30.3825 19.3412 30.6125C20.4437 30.8025 23.0338 30.4925 23.8825 27.5037C24.2575 25.575 23.9275 24.1287 21.4812 22.1812L21.6775 20.0937C21.6775 20.0937 24.4163 22.1312 25.0988 23.53C25.6213 24.64 26.5187 26.8212 24.72 29.7725Z" fill="white"/>
</svg>
